<svg width="44" height="58" viewBox="0 0 44 58" fill="none" xmlns="http://www.w3.org/2000/svg">
<g clip-path="url(#clip0_4_633)">
<path d="M20.7972 54.7778C5.42659 54.7778 0.451416 42.282 0.451416 36.2274C0.451416 32.0579 1.76466 29.3287 2.6612 27.9399C2.6612 30.0956 3.20733 31.9999 4.17964 33.0954C4.43271 33.407 4.7488 33.6591 5.10626 33.8343C5.46371 34.0095 5.85405 34.1037 6.25053 34.1104C7.96153 34.1104 9.11062 32.8216 9.11062 30.8882C9.11062 29.6831 8.3877 28.8679 7.62375 28.0043C6.6988 26.9603 5.72965 25.8777 5.72965 23.8734C5.72965 21.4439 7.16917 19.1432 8.13516 17.8737C8.13516 22.0303 10.869 23.7768 12.46 24.1248L13.0914 24.2666L12.9967 23.6221C12.9967 23.5834 12.4695 19.5524 15.5821 15.602C15.9736 15.1058 16.3871 14.6031 16.8007 14.1004C18.9757 11.455 21.2202 8.72256 21.2202 5.82256C21.2104 4.18002 20.8743 2.55658 20.2322 1.05045C26.9625 4.82045 26.8615 10.0727 26.1575 12.9501C25.9776 13.6912 25.1442 17.4773 26.53 19.2914C26.7743 19.6083 27.0889 19.8612 27.4479 20.0293C27.8069 20.1974 28.2 20.2759 28.5946 20.2581C30.0531 20.2581 31.2211 19.3527 31.9693 17.6384C32.1846 17.1354 32.3547 16.6134 32.4775 16.0789C35.7575 19.865 34.9335 23.3096 33.6077 25.5844C32.3923 27.666 32.0482 29.8023 32.7301 31.03C32.9261 31.3782 33.2143 31.6629 33.5616 31.8516C33.9089 32.0402 34.3012 32.1251 34.6936 32.0966C35.0607 32.1035 35.4248 32.0287 35.7607 31.8773C36.0965 31.726 36.396 31.5017 36.6382 31.2201C37.6926 30.0247 37.901 27.8336 37.901 26.3578C39.2237 28.2428 40.84 31.1428 40.84 35.2092C40.84 38.4314 39.6877 43.3615 36.4615 47.5374C33.9139 50.8402 29.1218 54.7778 20.7972 54.7778Z" fill="#FF3A00" style="fill:#FF3A00;fill:color(display-p3 1.0000 0.2288 0.0000);fill-opacity:1;"/>
<path d="M40.0918 27.6628C40.1457 28.2669 40.1636 28.8738 40.1455 29.4801C39.5347 28.0525 38.7521 26.7082 37.8158 25.4781C38.1314 23.3482 37.6516 20.6706 34.8894 17.8672C34.8472 18.205 34.784 18.5398 34.7 18.8693C34.1303 17.4456 33.2693 16.1624 32.1745 15.1058C32.1745 15.1058 31.7104 19.4493 28.9135 19.778C28.8327 18.4485 28.9574 17.1143 29.2828 15.8243C29.7122 14.0714 30.5834 8.84822 25.1 4.69156C23.9604 3.03211 22.0979 1.38556 19.1967 0C20.2122 1.76678 20.7635 3.77126 20.7972 5.81933C20.7972 9.08344 17.6625 12.2638 15.2538 15.3056C11.9707 19.4751 12.5768 23.6833 12.5768 23.6833C12.3229 23.6196 12.0755 23.5311 11.8381 23.4191C11.3993 22.4009 11.172 21.0637 11.4025 19.2947C10.7464 19.9983 10.1605 20.7668 9.65361 21.5889C8.90544 20.5094 8.39087 18.9016 8.70656 16.5171C8.70656 16.5171 5.3098 19.9907 5.3098 23.867C5.3098 27.7433 8.67183 28.5489 8.67183 30.8947C8.67183 32.6089 7.69006 33.6658 6.26316 33.6658H6.24107C5.83828 32.2436 5.72335 30.7526 5.90329 29.2836C5.13224 30.1226 4.51145 31.0932 4.06916 32.1513C3.29574 30.8109 2.95796 28.7261 3.19788 26.5189C3.19788 26.5189 0 29.5961 0 36.2307C0 40.2778 2.01091 46.4644 7.07763 50.6727C10.3323 54.7423 15.6011 58 23.4932 58C38.8922 58 43.9905 44.9017 43.9905 37.9707C44 32.8667 41.4998 29.4994 40.0918 27.6628ZM36.1016 47.2539C33.6108 50.4761 28.9356 54.317 20.7878 54.317C5.75807 54.317 0.899699 42.1306 0.899699 36.2307C0.860903 33.9006 1.34579 31.5924 2.31712 29.4833C2.52231 31.0944 3.05582 32.5058 3.85134 33.4144C4.14647 33.7759 4.51497 34.0677 4.93138 34.2697C5.34778 34.4716 5.80218 34.5789 6.26316 34.5841C8.21093 34.5841 9.57153 33.0664 9.57153 30.8947C9.57153 29.5123 8.75707 28.5908 7.96786 27.7014C7.05869 26.6768 6.20319 25.7069 6.20319 23.8799C6.20319 22.1334 7.00187 20.4418 7.79739 19.1948C7.95651 20.4552 8.47715 21.6394 9.29385 22.5986C10.1106 23.5577 11.1869 24.2491 12.3874 24.5856L13.6502 24.8562L13.4734 23.5673C13.3956 22.7556 13.4296 21.9367 13.5744 21.1346C13.9178 19.2062 14.7382 17.3994 15.9578 15.8856C16.3461 15.3926 16.766 14.8802 17.1732 14.3904C19.3988 11.6838 21.6969 8.88367 21.6969 5.81933C21.6911 4.56236 21.4919 3.31411 21.1066 2.12022C26.4732 5.66467 26.3564 10.2499 25.7219 12.8406C25.4536 13.9329 24.6959 17.6417 26.1733 19.575C26.4604 19.9465 26.8293 20.2437 27.25 20.4425C27.6707 20.6412 28.1314 20.7359 28.5946 20.7189C29.7469 20.7189 31.3379 20.2162 32.3828 17.8189C32.4955 17.5661 32.5935 17.3068 32.6764 17.0423C35.1419 20.3612 34.3937 23.3386 33.2226 25.3428C31.9062 27.5983 31.5684 29.8539 32.3418 31.2491C32.5803 31.6642 32.9263 32.0042 33.3417 32.2316C33.7572 32.459 34.2261 32.565 34.6968 32.538C35.127 32.5437 35.5534 32.4545 35.9467 32.2765C36.3401 32.0986 36.6912 31.8361 36.976 31.5069C37.8126 30.5596 38.1662 29.0902 38.2956 27.7659C39.6626 29.9863 40.3901 32.5545 40.3949 35.177C40.4075 38.3444 39.2679 43.1778 36.1111 47.2539H36.1016Z" fill="black" style="fill:black;fill-opacity:1;"/>
</g>
<defs>
<clipPath id="clip0_4_633">
<rect width="44" height="58" fill="white" style="fill:white;fill-opacity:1;"/>
</clipPath>
</defs>
</svg>
